<svg width="47" height="47" viewBox="0 0 47 47" fill="none" xmlns="http://www.w3.org/2000/svg">
<path d="M14.5725 37.465H10.8924C5.25744 37.0625 2.72754 32.7308 2.72754 28.8783C2.72754 25.0258 5.25746 20.675 10.7966 20.2916C11.5825 20.215 12.2724 20.8283 12.3299 21.6333C12.3874 22.4191 11.7934 23.1091 10.9884 23.1666C7.27003 23.435 5.60254 26.2333 5.60254 28.8974C5.60254 31.5616 7.27003 34.36 10.9884 34.6283H14.5725C15.3584 34.6283 16.01 35.28 16.01 36.0658C16.01 36.8516 15.3584 37.465 14.5725 37.465Z" fill="#292D32"/>
<path d="M32.2237 37.4652C32.1853 37.4652 32.1662 37.4652 32.1279 37.4652C31.342 37.4652 30.6137 36.8136 30.6137 36.0277C30.6137 35.2036 31.227 34.5902 32.032 34.5902C34.3895 34.5902 36.4979 33.7661 38.1462 32.2902C41.1362 29.6836 41.3279 25.9269 40.5229 23.2819C39.7179 20.6561 37.4754 17.6469 33.5654 17.1677C32.9329 17.0911 32.4345 16.6119 32.3195 15.9794C31.5528 11.3794 29.0804 8.19773 25.3237 7.04773C21.452 5.84023 16.9286 7.02856 14.1111 9.98023C11.3703 12.8361 10.7378 16.8419 12.3287 21.2502C12.597 21.9977 12.2138 22.8219 11.4663 23.0902C10.7188 23.3586 9.89454 22.9752 9.62621 22.2277C7.69038 16.8227 8.57206 11.6477 12.0412 8.00606C15.5871 4.28773 21.2796 2.81188 26.167 4.30688C30.6521 5.68688 33.8145 9.38605 34.9645 14.5227C38.8745 15.4044 42.0178 18.3752 43.2637 22.4769C44.6245 26.9427 43.3979 31.5427 40.0437 34.4561C37.9162 36.3727 35.137 37.4652 32.2237 37.4652Z" fill="#292D32"/>
<path d="M23.2738 43.1003C19.4213 43.1003 15.818 41.0494 13.8438 37.7336C13.633 37.4078 13.4221 37.0244 13.2496 36.6028C12.598 35.2419 12.2529 33.6894 12.2529 32.0794C12.2529 26.0036 17.1979 21.0586 23.2738 21.0586C29.3496 21.0586 34.2946 26.0036 34.2946 32.0794C34.2946 33.7086 33.9496 35.2419 33.2596 36.6603C33.1063 37.0244 32.8955 37.4078 32.6655 37.7719C30.7296 41.0494 27.1263 43.1003 23.2738 43.1003ZM23.2738 23.9336C18.7888 23.9336 15.1279 27.5944 15.1279 32.0794C15.1279 33.2678 15.3771 34.3794 15.8563 35.3953C16.0096 35.7211 16.1437 35.9894 16.2971 36.2386C17.7537 38.7111 20.4179 40.2253 23.2546 40.2253C26.0912 40.2253 28.7554 38.7111 30.1929 36.2769C30.3654 35.9894 30.5188 35.7211 30.6338 35.4528C31.1513 34.3986 31.4004 33.2869 31.4004 32.0986C31.4196 27.5944 27.7588 23.9336 23.2738 23.9336Z" fill="#292D32"/>
<path d="M22.1808 35.4138C21.8167 35.4138 21.4526 35.2796 21.1651 34.9921L19.2675 33.0946C18.7116 32.5388 18.7116 31.6188 19.2675 31.0629C19.8233 30.5071 20.7433 30.5071 21.2991 31.0629L22.2192 31.9829L25.2858 29.1463C25.88 28.6096 26.7808 28.6479 27.3175 29.2229C27.8542 29.7979 27.8159 30.7179 27.2409 31.2546L23.1584 35.0304C22.8709 35.2796 22.5258 35.4138 22.1808 35.4138Z" fill="#292D32"/>
</svg>
