<svg width="17" height="16" viewBox="0 0 17 16" fill="none" xmlns="http://www.w3.org/2000/svg">
<path d="M5.66667 1.14286C6.22705 1.14286 6.77484 1.31043 7.24078 1.62437C7.70672 1.93832 8.06988 2.38454 8.28433 2.90662C8.49877 3.42869 8.55488 4.00317 8.44556 4.5574C8.33623 5.11163 8.06638 5.62073 7.67014 6.02031C7.27389 6.41988 6.76904 6.692 6.21942 6.80224C5.66981 6.91249 5.10012 6.85591 4.5824 6.63966C4.06467 6.42341 3.62217 6.0572 3.31084 5.58734C2.99951 5.11749 2.83333 4.56509 2.83333 4C2.83333 3.24224 3.13184 2.51551 3.6632 1.97969C4.19455 1.44388 4.91522 1.14286 5.66667 1.14286ZM5.66667 0C4.88213 0 4.11522 0.234596 3.4629 0.674122C2.81059 1.11365 2.30217 1.73836 2.00194 2.46927C1.70172 3.20017 1.62316 4.00444 1.77622 4.78036C1.92927 5.55629 2.30706 6.26902 2.86181 6.82843C3.41656 7.38784 4.12335 7.7688 4.89281 7.92314C5.66227 8.07748 6.45983 7.99827 7.18464 7.69552C7.90946 7.39277 8.52897 6.88008 8.96483 6.22228C9.40069 5.56448 9.63333 4.79113 9.63333 4C9.63333 2.93913 9.21542 1.92172 8.47152 1.17157C7.72763 0.421427 6.71869 0 5.66667 0ZM11.3333 16H10.2V13.1429C10.2 12.3851 9.90149 11.6584 9.37014 11.1226C8.83878 10.5867 8.11811 10.2857 7.36667 10.2857H3.96667C3.21522 10.2857 2.49455 10.5867 1.9632 11.1226C1.43184 11.6584 1.13333 12.3851 1.13333 13.1429V16H0V13.1429C0 12.082 0.417915 11.0646 1.16181 10.3144C1.9057 9.56429 2.91464 9.14286 3.96667 9.14286H7.36667C8.41869 9.14286 9.42763 9.56429 10.1715 10.3144C10.9154 11.0646 11.3333 12.082 11.3333 13.1429V16ZM11.3333 1.14286H17V2.28571H11.3333V1.14286ZM11.3333 4H17V5.14286H11.3333V4ZM11.3333 6.85714H15.3V8H11.3333V6.85714Z" fill="white"/>
</svg>
