<svg width="12" height="8" viewBox="0 0 12 8" fill="none" xmlns="http://www.w3.org/2000/svg">
<path d="M6.00038 5.60039C6.88403 5.60039 7.60037 4.88405 7.60037 4.00039C7.60037 3.11673 6.88403 2.40039 6.00038 2.40039C5.11673 2.40039 4.40039 3.11673 4.40039 4.00039C4.40039 4.88405 5.11673 5.60039 6.00038 5.60039Z" fill="#4C4C4C"/>
<path d="M11.8714 3.565C11.2099 2.542 10.3517 1.673 9.38968 1.05175C8.32544 0.36375 7.15045 0 5.99196 0C4.92896 0 3.88372 0.30375 2.88523 0.90275C1.86699 1.5135 0.944492 2.40575 0.143248 3.5545C0.0527944 3.68433 0.00297831 3.83811 0.000129407 3.99632C-0.0027195 4.15452 0.0415275 4.31 0.127248 4.443C0.787493 5.47625 1.63724 6.3465 2.58423 6.95925C3.65047 7.65 4.79797 8 5.99196 8C7.1597 8 8.33719 7.63925 9.39693 6.957C10.3584 6.33775 11.2149 5.4655 11.8739 4.434C11.9567 4.30409 12.0004 4.15317 12 3.99913C11.9996 3.8451 11.9549 3.69443 11.8714 3.565ZM6.00046 6.4C5.52578 6.4 5.06177 6.25924 4.6671 5.99553C4.27242 5.73181 3.96481 5.35698 3.78316 4.91844C3.60151 4.4799 3.55398 3.99734 3.64659 3.53178C3.73919 3.06623 3.96777 2.63859 4.30341 2.30294C4.63906 1.9673 5.06669 1.73872 5.53224 1.64612C5.99779 1.55351 6.48035 1.60104 6.91889 1.78269C7.35743 1.96434 7.73226 2.27195 7.99597 2.66663C8.25968 3.06131 8.40044 3.52532 8.40044 4C8.39971 4.6363 8.14662 5.24632 7.6967 5.69625C7.24677 6.14618 6.63675 6.39927 6.00046 6.4Z" fill="#4C4C4C"/>
</svg>
