<svg width="12" height="12" viewBox="0 0 12 12" fill="none" xmlns="http://www.w3.org/2000/svg">
<path d="M5.73448 3.02657H3.41026C3.16465 3.0265 2.92496 3.10201 2.72375 3.24286C2.52253 3.38371 2.36954 3.58307 2.28554 3.81387L0.036102 10.001C-0.0434658 10.2194 0.0109753 10.4641 0.174897 10.6286L0.350186 10.8039L4.19218 6.96189C4.19158 6.94634 4.18739 6.93078 4.18739 6.91523C4.18739 6.73774 4.24002 6.56424 4.33863 6.41667C4.43723 6.26909 4.57739 6.15407 4.74136 6.08615C4.90534 6.01823 5.08577 6.00046 5.25984 6.03509C5.43392 6.06971 5.59382 6.15518 5.71932 6.28068C5.84482 6.40618 5.93029 6.56608 5.96491 6.74016C5.99954 6.91423 5.98177 7.09466 5.91385 7.25864C5.84593 7.42261 5.73091 7.56277 5.58333 7.66137C5.43576 7.75998 5.26226 7.81261 5.08477 7.81261C5.06922 7.81261 5.05366 7.80842 5.03811 7.80782L1.19612 11.6498L1.37141 11.8251C1.45184 11.9057 1.55369 11.9617 1.6649 11.9863C1.77611 12.0109 1.89204 12.0031 1.99898 11.9639L8.18613 9.71386C8.41693 9.62986 8.61629 9.47687 8.75714 9.27565C8.89799 9.07444 8.9735 8.83476 8.97343 8.58914V6.26492L10.1693 5.06961L6.93039 1.83066L5.73448 3.02657ZM10.7317 4.26017L7.74043 1.2689L9.00873 0L12 2.99127L10.7317 4.26017Z" fill="#4C4C4C"/>
</svg>
