<svg width="30" height="28" viewBox="0 0 30 28" fill="none" xmlns="http://www.w3.org/2000/svg">
<rect x="0.214844" width="29.0952" height="28" rx="5" fill="#FF5252"/>
<path d="M12.7783 12.0455V17.7727C12.7783 17.8655 12.7473 17.9418 12.6853 18.0014C12.6233 18.0611 12.5441 18.0909 12.4477 18.0909H11.7864C11.69 18.0909 11.6108 18.0611 11.5488 18.0014C11.4868 17.9418 11.4558 17.8655 11.4558 17.7727V12.0455C11.4558 11.9527 11.4868 11.8764 11.5488 11.8168C11.6108 11.7571 11.69 11.7273 11.7864 11.7273H12.4477C12.5441 11.7273 12.6233 11.7571 12.6853 11.8168C12.7473 11.8764 12.7783 11.9527 12.7783 12.0455ZM15.4233 12.0455V17.7727C15.4233 17.8655 15.3923 17.9418 15.3303 18.0014C15.2683 18.0611 15.1891 18.0909 15.0927 18.0909H14.4314C14.335 18.0909 14.2558 18.0611 14.1938 18.0014C14.1318 17.9418 14.1008 17.8655 14.1008 17.7727V12.0455C14.1008 11.9527 14.1318 11.8764 14.1938 11.8168C14.2558 11.7571 14.335 11.7273 14.4314 11.7273H15.0927C15.1891 11.7273 15.2683 11.7571 15.3303 11.8168C15.3923 11.8764 15.4233 11.9527 15.4233 12.0455ZM18.0683 12.0455V17.7727C18.0683 17.8655 18.0373 17.9418 17.9753 18.0014C17.9134 18.0611 17.8341 18.0909 17.7377 18.0909H17.0765C16.98 18.0909 16.9008 18.0611 16.8388 18.0014C16.7768 17.9418 16.7458 17.8655 16.7458 17.7727V12.0455C16.7458 11.9527 16.7768 11.8764 16.8388 11.8168C16.9008 11.7571 16.98 11.7273 17.0765 11.7273H17.7377C17.8341 11.7273 17.9134 11.7571 17.9753 11.8168C18.0373 11.8764 18.0683 11.9527 18.0683 12.0455ZM19.3908 19.2443V9.81818H10.1333V19.2443C10.1333 19.3902 10.1574 19.5244 10.2056 19.647C10.2538 19.7696 10.3038 19.8591 10.3554 19.9155C10.4071 19.9718 10.4433 20 10.4639 20H19.0602C19.0809 20 19.117 19.9718 19.1687 19.9155C19.2204 19.8591 19.2703 19.7696 19.3185 19.647C19.3667 19.5244 19.3908 19.3902 19.3908 19.2443ZM12.4477 8.54545H17.0765L16.5805 7.3821C16.5323 7.32244 16.4738 7.28598 16.4049 7.27273H13.1296C13.0607 7.28598 13.0022 7.32244 12.954 7.3821L12.4477 8.54545ZM22.0359 8.86364V9.5C22.0359 9.5928 22.0049 9.66903 21.9429 9.72869C21.8809 9.78835 21.8017 9.81818 21.7052 9.81818H20.7134V19.2443C20.7134 19.7945 20.5515 20.2701 20.2277 20.6712C19.904 21.0722 19.5148 21.2727 19.0602 21.2727H10.4639C10.0093 21.2727 9.62014 21.0788 9.2964 20.6911C8.97266 20.3033 8.81079 19.8343 8.81079 19.2841V9.81818H7.81891C7.72248 9.81818 7.64326 9.78835 7.58127 9.72869C7.51928 9.66903 7.48828 9.5928 7.48828 9.5V8.86364C7.48828 8.77083 7.51928 8.6946 7.58127 8.63494C7.64326 8.57528 7.72248 8.54545 7.81891 8.54545H11.0115L11.7348 6.88494C11.8381 6.63968 12.0241 6.43087 12.2927 6.25852C12.5613 6.08617 12.8334 6 13.1089 6H16.4152C16.6907 6 16.9628 6.08617 17.2314 6.25852C17.5001 6.43087 17.6861 6.63968 17.7894 6.88494L18.5126 8.54545H21.7052C21.8017 8.54545 21.8809 8.57528 21.9429 8.63494C22.0049 8.6946 22.0359 8.77083 22.0359 8.86364Z" fill="white"/>
</svg>
