<svg width="26" height="26" viewBox="0 0 26 26" fill="none" xmlns="http://www.w3.org/2000/svg">
<path d="M23.2908 4.33301H20.9435V5.77745H23.1102V21.6663H2.88799V5.77745H5.05466V4.33301H2.70743C2.53861 4.33583 2.37199 4.37188 2.21709 4.43911C2.0622 4.50633 1.92207 4.60341 1.8047 4.72481C1.68733 4.8462 1.59503 4.98952 1.53306 5.14659C1.47109 5.30366 1.44068 5.4714 1.44355 5.64023V21.8036C1.44068 21.9724 1.47109 22.1401 1.53306 22.2972C1.59503 22.4543 1.68733 22.5976 1.8047 22.719C1.92207 22.8404 2.0622 22.9375 2.21709 23.0047C2.37199 23.0719 2.53861 23.108 2.70743 23.1108H23.2908C23.4596 23.108 23.6262 23.0719 23.7811 23.0047C23.936 22.9375 24.0761 22.8404 24.1935 22.719C24.3109 22.5976 24.4032 22.4543 24.4651 22.2972C24.5271 22.1401 24.5575 21.9724 24.5547 21.8036V5.64023C24.5575 5.4714 24.5271 5.30366 24.4651 5.14659C24.4032 4.98952 24.3109 4.8462 24.1935 4.72481C24.0761 4.60341 23.936 4.50633 23.7811 4.43911C23.6262 4.37188 23.4596 4.33583 23.2908 4.33301Z" fill="black"/>
<path d="M5.77734 10.1113H7.22179V11.5558H5.77734V10.1113Z" fill="black"/>
<path d="M10.1113 10.1113H11.5558V11.5558H10.1113V10.1113Z" fill="black"/>
<path d="M14.4453 10.1113H15.8898V11.5558H14.4453V10.1113Z" fill="black"/>
<path d="M18.7773 10.1113H20.2218V11.5558H18.7773V10.1113Z" fill="black"/>
<path d="M5.77734 13.7227H7.22179V15.1671H5.77734V13.7227Z" fill="black"/>
<path d="M10.1113 13.7227H11.5558V15.1671H10.1113V13.7227Z" fill="black"/>
<path d="M14.4453 13.7227H15.8898V15.1671H14.4453V13.7227Z" fill="black"/>
<path d="M18.7773 13.7227H20.2218V15.1671H18.7773V13.7227Z" fill="black"/>
<path d="M5.77734 17.333H7.22179V18.7775H5.77734V17.333Z" fill="black"/>
<path d="M10.1113 17.333H11.5558V18.7775H10.1113V17.333Z" fill="black"/>
<path d="M14.4453 17.333H15.8898V18.7775H14.4453V17.333Z" fill="black"/>
<path d="M18.7773 17.333H20.2218V18.7775H18.7773V17.333Z" fill="black"/>
<path d="M7.22222 7.22211C7.41377 7.22211 7.59747 7.14602 7.73291 7.01058C7.86835 6.87514 7.94444 6.69144 7.94444 6.49989V2.16656C7.94444 1.97501 7.86835 1.79131 7.73291 1.65587C7.59747 1.52043 7.41377 1.44434 7.22222 1.44434C7.03068 1.44434 6.84698 1.52043 6.71153 1.65587C6.57609 1.79131 6.5 1.97501 6.5 2.16656V6.49989C6.5 6.69144 6.57609 6.87514 6.71153 7.01058C6.84698 7.14602 7.03068 7.22211 7.22222 7.22211Z" fill="black"/>
<path d="M18.7769 7.22211C18.9685 7.22211 19.1522 7.14602 19.2876 7.01058C19.423 6.87514 19.4991 6.69144 19.4991 6.49989V2.16656C19.4991 1.97501 19.423 1.79131 19.2876 1.65587C19.1522 1.52043 18.9685 1.44434 18.7769 1.44434C18.5854 1.44434 18.4017 1.52043 18.2662 1.65587C18.1308 1.79131 18.0547 1.97501 18.0547 2.16656V6.49989C18.0547 6.69144 18.1308 6.87514 18.2662 7.01058C18.4017 7.14602 18.5854 7.22211 18.7769 7.22211Z" fill="black"/>
<path d="M9.38867 4.33301H16.6109V5.77745H9.38867V4.33301Z" fill="black"/>
</svg>
