<svg width="12" height="14" viewBox="0 0 12 14" fill="none" xmlns="http://www.w3.org/2000/svg">
<path d="M0 3.01601C0 2.75268 0.218 2.54001 0.486667 2.54001H3.67867C3.68267 1.97868 3.744 1.21001 4.3 0.678009C4.758 0.241187 5.36709 -0.00173406 6 9.31929e-06C6.63291 -0.00173406 7.242 0.241187 7.7 0.678009C8.256 1.21001 8.31733 1.97868 8.32133 2.54001H11.5133C11.782 2.54001 12 2.75334 12 3.01601C11.9993 3.07922 11.9862 3.14167 11.9613 3.19981C11.9365 3.25794 11.9004 3.31061 11.8553 3.35481C11.8101 3.39901 11.7566 3.43388 11.6979 3.45742C11.6393 3.48096 11.5765 3.49271 11.5133 3.49201H0.486667C0.423456 3.49271 0.360726 3.48096 0.302058 3.45742C0.24339 3.43388 0.189934 3.39901 0.144742 3.35481C0.0995501 3.31061 0.0635074 3.25794 0.0386724 3.19981C0.0138375 3.14167 0.000696515 3.07922 0 3.01601ZM5.738 13.3333H6.26267C8.06733 13.3333 8.96933 13.3333 9.556 12.758C10.1433 12.1827 10.2033 11.238 10.3233 9.35068L10.4967 6.63068C10.562 5.60601 10.594 5.09334 10.3 4.76934C10.0053 4.44468 9.50867 4.44468 8.514 4.44468H3.48667C2.49267 4.44468 1.99533 4.44468 1.70067 4.76934C1.40667 5.09334 1.43933 5.60601 1.504 6.63001L1.67733 9.35001C1.79733 11.2387 1.85733 12.1827 2.444 12.758C3.03 13.3333 3.93333 13.3333 5.738 13.3333Z" fill="#4C4C4C"/>
</svg>
