<svg width="25" height="25" viewBox="0 0 25 25" fill="none" xmlns="http://www.w3.org/2000/svg">
<mask id="path-1-inside-1_277_2138" fill="white">
<path d="M19.6433 14.2857L15.3763 8.56964C14.671 7.64705 14.288 6.51845 14.2861 5.35714C14.2861 2.40357 16.6888 0 19.6433 0C22.5977 0 25.0004 2.40357 25.0004 5.35714C24.9985 6.52039 24.6142 7.65075 23.9067 8.57411L19.6433 14.2857ZM19.6433 1.78571C17.6736 1.78571 16.0718 3.3875 16.0718 5.35714C16.0718 6.12321 16.3254 6.86339 16.804 7.49732L19.6433 11.3009L22.479 7.50179C22.9611 6.86339 23.2147 6.12321 23.2147 5.35714C23.2147 3.3875 21.6129 1.78571 19.6433 1.78571Z"/>
</mask>
<path d="M19.6433 14.2857L18.0406 15.4821L19.6433 17.6292L21.246 15.4821L19.6433 14.2857ZM15.3763 8.56964L16.979 7.37325L16.9722 7.36407L16.9652 7.35497L15.3763 8.56964ZM14.2861 5.35714H12.2861L12.2861 5.36037L14.2861 5.35714ZM25.0004 5.35714L27.0004 5.36045V5.35714H25.0004ZM23.9067 8.57411L22.3191 7.35767L22.3115 7.36767L22.3039 7.37776L23.9067 8.57411ZM16.804 7.49732L18.4067 6.30092L18.4002 6.29229L16.804 7.49732ZM19.6433 11.3009L18.0406 12.4973L19.6433 14.6444L21.246 12.4972L19.6433 11.3009ZM22.479 7.50179L20.883 6.29642L20.8762 6.30547L22.479 7.50179ZM21.246 13.0893L16.979 7.37325L13.7736 9.76603L18.0406 15.4821L21.246 13.0893ZM16.9652 7.35497C16.5259 6.78028 16.2873 6.07729 16.2861 5.35391L12.2861 5.36037C12.2887 6.95962 12.8161 8.51381 13.7874 9.78432L16.9652 7.35497ZM16.2861 5.35714C16.2861 3.50792 17.7936 2 19.6433 2V-2C15.584 -2 12.2861 1.29922 12.2861 5.35714H16.2861ZM19.6433 2C21.493 2 23.0004 3.50792 23.0004 5.35714H27.0004C27.0004 1.29922 23.7025 -2 19.6433 -2V2ZM23.0004 5.35384C22.9992 6.07842 22.7598 6.78252 22.3191 7.35767L25.4942 9.79054C26.4685 8.51899 26.9978 6.96237 27.0004 5.36045L23.0004 5.35384ZM22.3039 7.37776L18.0405 13.0894L21.246 15.4821L25.5094 9.77046L22.3039 7.37776ZM19.6433 -0.214286C16.5691 -0.214286 14.0718 2.28293 14.0718 5.35714H18.0718C18.0718 4.49207 18.7782 3.78571 19.6433 3.78571V-0.214286ZM14.0718 5.35714C14.0718 6.57594 14.4781 7.73584 15.2078 8.70235L18.4002 6.29229C18.1727 5.99095 18.0718 5.67049 18.0718 5.35714H14.0718ZM15.2013 8.69371L18.0406 12.4973L21.246 10.1045L18.4067 6.30094L15.2013 8.69371ZM21.246 12.4972L24.0817 8.69811L20.8762 6.30547L18.0405 10.1046L21.246 12.4972ZM24.075 8.70714C24.8074 7.73732 25.2147 6.57755 25.2147 5.35714H21.2147C21.2147 5.66888 21.1149 5.98947 20.883 6.29644L24.075 8.70714ZM25.2147 5.35714C25.2147 2.28293 22.7175 -0.214286 19.6433 -0.214286V3.78571C20.5083 3.78571 21.2147 4.49207 21.2147 5.35714H25.2147Z" fill="#FF5533" mask="url(#path-1-inside-1_277_2138)"/>
<path d="M20.4289 5.357C20.4289 5.79094 20.0771 6.14272 19.6431 6.14272C19.2092 6.14272 18.8574 5.79094 18.8574 5.357C18.8574 4.92307 19.2092 4.57129 19.6431 4.57129C20.0771 4.57129 20.4289 4.92307 20.4289 5.357Z" stroke="#FF5533" stroke-width="2"/>
<mask id="path-4-inside-2_277_2138" fill="white">
<path d="M23.2143 14.2861V17.8576H1.78571V3.57185H10.7143V1.78613H1.78571C1.31211 1.78613 0.85791 1.97427 0.523023 2.30916C0.188137 2.64404 0 3.09825 0 3.57185V17.8576C0 18.3312 0.188137 18.7854 0.523023 19.1203C0.85791 19.4551 1.31211 19.6433 1.78571 19.6433H8.92857V23.2147H5.35714V25.0004H19.6429V23.2147H16.0714V19.6433H23.2143C23.6879 19.6433 24.1421 19.4551 24.477 19.1203C24.8119 18.7854 25 18.3312 25 17.8576V14.2861H23.2143ZM14.2857 23.2147H10.7143V19.6433H14.2857V23.2147Z"/>
</mask>
<path d="M23.2143 14.2861V12.2861H21.2143V14.2861H23.2143ZM23.2143 17.8576V19.8576H25.2143V17.8576H23.2143ZM1.78571 17.8576H-0.214286V19.8576H1.78571V17.8576ZM1.78571 3.57185V1.57185H-0.214286V3.57185H1.78571ZM10.7143 3.57185V5.57185H12.7143V3.57185H10.7143ZM10.7143 1.78613H12.7143V-0.213867H10.7143V1.78613ZM1.78571 1.78613V-0.213867V1.78613ZM0 3.57185H-2H0ZM0 17.8576H-2H0ZM8.92857 19.6433H10.9286V17.6433H8.92857V19.6433ZM8.92857 23.2147V25.2147H10.9286V23.2147H8.92857ZM5.35714 23.2147V21.2147H3.35714V23.2147H5.35714ZM5.35714 25.0004H3.35714V27.0004H5.35714V25.0004ZM19.6429 25.0004V27.0004H21.6429V25.0004H19.6429ZM19.6429 23.2147H21.6429V21.2147H19.6429V23.2147ZM16.0714 23.2147H14.0714V25.2147H16.0714V23.2147ZM16.0714 19.6433V17.6433H14.0714V19.6433H16.0714ZM25 14.2861H27V12.2861H25V14.2861ZM14.2857 23.2147V25.2147H16.2857V23.2147H14.2857ZM10.7143 23.2147H8.71429V25.2147H10.7143V23.2147ZM10.7143 19.6433V17.6433H8.71429V19.6433H10.7143ZM14.2857 19.6433H16.2857V17.6433H14.2857V19.6433ZM21.2143 14.2861V17.8576H25.2143V14.2861H21.2143ZM23.2143 15.8576H1.78571V19.8576H23.2143V15.8576ZM3.78571 17.8576V3.57185H-0.214286V17.8576H3.78571ZM1.78571 5.57185H10.7143V1.57185H1.78571V5.57185ZM12.7143 3.57185V1.78613H8.71429V3.57185H12.7143ZM10.7143 -0.213867H1.78571V3.78613H10.7143V-0.213867ZM1.78571 -0.213867C0.781681 -0.213867 -0.181231 0.184983 -0.89119 0.894943L1.93724 3.72337C1.89705 3.76356 1.84255 3.78613 1.78571 3.78613V-0.213867ZM-0.89119 0.894943C-1.60115 1.6049 -2 2.56781 -2 3.57185H2C2 3.62868 1.97742 3.68318 1.93724 3.72337L-0.89119 0.894943ZM-2 3.57185V17.8576H2V3.57185H-2ZM-2 17.8576C-2 18.8616 -1.60115 19.8245 -0.89119 20.5345L1.93724 17.706C1.97742 17.7462 2 17.8007 2 17.8576H-2ZM-0.89119 20.5345C-0.181233 21.2444 0.781678 21.6433 1.78571 21.6433V17.6433C1.84255 17.6433 1.89705 17.6659 1.93724 17.706L-0.89119 20.5345ZM1.78571 21.6433H8.92857V17.6433H1.78571V21.6433ZM6.92857 19.6433V23.2147H10.9286V19.6433H6.92857ZM8.92857 21.2147H5.35714V25.2147H8.92857V21.2147ZM3.35714 23.2147V25.0004H7.35714V23.2147H3.35714ZM5.35714 27.0004H19.6429V23.0004H5.35714V27.0004ZM21.6429 25.0004V23.2147H17.6429V25.0004H21.6429ZM19.6429 21.2147H16.0714V25.2147H19.6429V21.2147ZM18.0714 23.2147V19.6433H14.0714V23.2147H18.0714ZM16.0714 21.6433H23.2143V17.6433H16.0714V21.6433ZM23.2143 21.6433C24.2183 21.6433 25.1812 21.2444 25.8912 20.5345L23.0628 17.706C23.1029 17.6659 23.1574 17.6433 23.2143 17.6433V21.6433ZM25.8912 20.5345C26.6011 19.8245 27 18.8616 27 17.8576H23C23 17.8007 23.0226 17.7462 23.0628 17.706L25.8912 20.5345ZM27 17.8576V14.2861H23V17.8576H27ZM25 12.2861H23.2143V16.2861H25V12.2861ZM14.2857 21.2147H10.7143V25.2147H14.2857V21.2147ZM12.7143 23.2147V19.6433H8.71429V23.2147H12.7143ZM10.7143 21.6433H14.2857V17.6433H10.7143V21.6433ZM12.2857 19.6433V23.2147H16.2857V19.6433H12.2857Z" fill="#FF5533" mask="url(#path-4-inside-2_277_2138)"/>
</svg>
