<svg width="30" height="28" viewBox="0 0 30 28" fill="none" xmlns="http://www.w3.org/2000/svg">
<rect x="0.845703" width="29.0952" height="28" rx="5" fill="#6FA95C"/>
<path d="M21.6277 12H17.4712V8C17.4712 7.46957 17.2522 6.96086 16.8625 6.58579C16.4728 6.21071 15.9442 6 15.393 6C14.8418 6 14.3132 6.21071 13.9235 6.58579C13.5337 6.96086 13.3148 7.46957 13.3148 8L13.3885 12H9.1583C8.60712 12 8.07852 12.2107 7.68878 12.5858C7.29903 12.9609 7.08008 13.4696 7.08008 14C7.08008 14.5304 7.29903 15.0391 7.68878 15.4142C8.07852 15.7893 8.60712 16 9.1583 16L13.3885 15.929L13.3148 20C13.3148 20.5304 13.5337 21.0391 13.9235 21.4142C14.3132 21.7893 14.8418 22 15.393 22C15.9442 22 16.4728 21.7893 16.8625 21.4142C17.2522 21.0391 17.4712 20.5304 17.4712 20V15.929L21.6277 16C22.1788 16 22.7074 15.7893 23.0972 15.4142C23.4869 15.0391 23.7059 14.5304 23.7059 14C23.7059 13.4696 23.4869 12.9609 23.0972 12.5858C22.7074 12.2107 22.1788 12 21.6277 12Z" fill="white"/>
</svg>
