<svg width="20" height="20" viewBox="0 0 20 20" fill="none" xmlns="http://www.w3.org/2000/svg">
<path d="M20 16.9336C20 17.1424 19.921 17.3427 19.7803 17.4903C19.6397 17.638 19.4489 17.7209 19.25 17.7209H14.15C13.983 18.3748 13.6151 18.9525 13.1034 19.3646C12.5918 19.7767 11.9649 20 11.32 20C10.6751 20 10.0482 19.7767 9.53658 19.3646C9.02491 18.9525 8.65704 18.3748 8.49 17.7209H0.75C0.551088 17.7209 0.360322 17.638 0.21967 17.4903C0.0790175 17.3427 0 17.1424 0 16.9336C0 16.7248 0.0790175 16.5246 0.21967 16.3769C0.360322 16.2293 0.551088 16.1463 0.75 16.1463H8.49C8.65704 15.4924 9.02491 14.9147 9.53658 14.5026C10.0482 14.0906 10.6751 13.8672 11.32 13.8672C11.9649 13.8672 12.5918 14.0906 13.1034 14.5026C13.6151 14.9147 13.983 15.4924 14.15 16.1463H19.25C19.4489 16.1463 19.6397 16.2293 19.7803 16.3769C19.921 16.5246 20 16.7248 20 16.9336ZM20 3.06638C20 3.27519 19.921 3.47545 19.7803 3.6231C19.6397 3.77075 19.4489 3.8537 19.25 3.8537H16.8C16.633 4.50756 16.2651 5.08531 15.7534 5.49737C15.2418 5.90943 14.6149 6.13277 13.97 6.13277C13.3251 6.13277 12.6982 5.90943 12.1866 5.49737C11.6749 5.08531 11.307 4.50756 11.14 3.8537H0.75C0.651509 3.8537 0.553982 3.83333 0.462987 3.79377C0.371993 3.7542 0.289314 3.69621 0.21967 3.6231C0.150026 3.54999 0.0947813 3.4632 0.0570903 3.36768C0.0193993 3.27216 0 3.16978 0 3.06638C0 2.96299 0.0193993 2.86061 0.0570903 2.76509C0.0947813 2.66957 0.150026 2.58278 0.21967 2.50967C0.289314 2.43656 0.371993 2.37857 0.462987 2.339C0.553982 2.29943 0.651509 2.27907 0.75 2.27907H11.14C11.307 1.6252 11.6749 1.04745 12.1866 0.635398C12.6982 0.223342 13.3251 0 13.97 0C14.6149 0 15.2418 0.223342 15.7534 0.635398C16.2651 1.04745 16.633 1.6252 16.8 2.27907H19.25C19.3489 2.27766 19.447 2.29706 19.5386 2.33612C19.6302 2.37519 19.7134 2.43313 19.7833 2.50652C19.8532 2.57991 19.9084 2.66727 19.9457 2.76343C19.9829 2.85959 20.0013 2.9626 20 3.06638ZM20 9.99475C20.0013 10.0985 19.9829 10.2015 19.9457 10.2977C19.9084 10.3939 19.8532 10.4812 19.7833 10.5546C19.7134 10.628 19.6302 10.6859 19.5386 10.725C19.447 10.7641 19.3489 10.7835 19.25 10.7821H7.55C7.38296 11.4359 7.01509 12.0137 6.50342 12.4257C5.99176 12.8378 5.36489 13.0611 4.72 13.0611C4.07511 13.0611 3.44824 12.8378 2.93658 12.4257C2.42491 12.0137 2.05704 11.4359 1.89 10.7821H0.75C0.551088 10.7821 0.360322 10.6991 0.21967 10.5515C0.0790175 10.4038 0 10.2036 0 9.99475C0 9.78594 0.0790175 9.58569 0.21967 9.43804C0.360322 9.29039 0.551088 9.20744 0.75 9.20744H1.89C2.05704 8.55357 2.42491 7.97582 2.93658 7.56377C3.44824 7.15171 4.07511 6.92837 4.72 6.92837C5.36489 6.92837 5.99176 7.15171 6.50342 7.56377C7.01509 7.97582 7.38296 8.55357 7.55 9.20744H19.25C19.4489 9.20744 19.6397 9.29039 19.7803 9.43804C19.921 9.58569 20 9.78594 20 9.99475Z" fill="black"/>
</svg>
