<svg width="27" height="27" viewBox="0 0 27 27" fill="none" xmlns="http://www.w3.org/2000/svg">
<path d="M1 26C1 23.4741 2.0034 21.0517 3.78946 19.2656C5.57552 17.4796 7.99794 16.4762 10.5238 16.4762C13.0497 16.4762 15.4721 17.4796 17.2582 19.2656C19.0442 21.0517 20.0476 23.4741 20.0476 26H1ZM10.5238 15.2857C6.57738 15.2857 3.38095 12.0893 3.38095 8.14286C3.38095 4.19643 6.57738 1 10.5238 1C14.4702 1 17.6667 4.19643 17.6667 8.14286C17.6667 12.0893 14.4702 15.2857 10.5238 15.2857Z" stroke="#FF5533" stroke-width="2" stroke-linecap="round" stroke-linejoin="round"/>
<path d="M18.8574 2.19043C21.8172 2.19043 24.2146 5.08244 24.2146 8.65301C24.2146 12.2236 21.8172 15.0022 18.8574 15.0022C20.7518 15.0022 22.5686 15.9101 23.9082 17.526C25.2477 19.142 26.0003 21.3337 26.0003 23.619H22.9391" stroke="#FF5533" stroke-width="2" stroke-linecap="round" stroke-linejoin="round"/>
</svg>
