<svg width="27" height="27" viewBox="0 0 27 27" fill="none" xmlns="http://www.w3.org/2000/svg">
<path d="M18.0455 17.6667C18.0455 16.3512 14.4841 15.2857 10.0909 15.2857M18.0455 17.6667C18.0455 18.9821 14.4841 20.0476 10.0909 20.0476C5.69773 20.0476 2.13636 18.9821 2.13636 17.6667M18.0455 17.6667V23.544C18.0455 24.9 14.4841 26 10.0909 26C5.69773 26 2.13636 24.9012 2.13636 23.544V17.6667M18.0455 17.6667C22.3909 17.6667 26 16.4917 26 15.2857V3.38095M10.0909 15.2857C5.69773 15.2857 2.13636 16.3512 2.13636 17.6667M10.0909 15.2857C5.07045 15.2857 1 14.1107 1 12.9048V6.95238M10.0909 4.57143C5.07045 4.57143 1 5.6369 1 6.95238M1 6.95238C1 8.26786 5.07045 9.33333 10.0909 9.33333C10.0909 10.5393 13.7875 11.7143 18.133 11.7143C22.4773 11.7143 26 10.5393 26 9.33333M26 3.38095C26 2.06548 22.4773 1 18.133 1C13.7875 1 10.2659 2.06548 10.2659 3.38095M26 3.38095C26 4.69643 22.4773 5.7619 18.133 5.7619C13.7886 5.7619 10.2659 4.69643 10.2659 3.38095M10.2659 3.38095V15.4833" stroke="#FF5533" stroke-width="2"/>
</svg>
