<svg width="29" height="33" viewBox="0 0 29 33" fill="none" xmlns="http://www.w3.org/2000/svg">
<path d="M25.7778 29.7H3.22222V11.55H25.7778M20.9444 0V3.3H8.05556V0H4.83333V3.3H3.22222C1.43389 3.3 0 4.7685 0 6.6V29.7C0 30.5752 0.339483 31.4146 0.943767 32.0335C1.54805 32.6523 2.36764 33 3.22222 33H25.7778C26.6324 33 27.452 32.6523 28.0562 32.0335C28.6605 31.4146 29 30.5752 29 29.7V6.6C29 5.72479 28.6605 4.88542 28.0562 4.26655C27.452 3.64768 26.6324 3.3 25.7778 3.3H24.1667V0M22.5556 18.15H14.5V26.4H22.5556V18.15Z" fill="black"/>
</svg>
