<svg width="24" height="24" viewBox="0 0 24 24" fill="none" xmlns="http://www.w3.org/2000/svg">
<path d="M18.9443 14.6867L20.6466 16.8142L16.1757 22.4064L18.9443 14.6867ZM18.9443 14.6867L14.6841 20.0152L14.684 20.0154C14.6119 20.1056 14.5504 20.2311 14.5192 20.3899L14.5188 20.3922L13.9616 23.1821L15.9788 22.5529L18.9443 14.6867ZM11.3183 22.5528C11.2729 22.7846 11.2512 23.0184 11.252 23.25H1.11383C1.07496 23.25 0.998738 23.2323 0.911821 23.1236C0.823822 23.0136 0.749904 22.8337 0.749904 22.6078C0.749904 18.2401 3.55452 15 6.6872 15H10.1115C11.471 15 12.746 15.5908 13.7743 16.628L12.6614 18.0189C12.2726 18.5048 12.0078 19.0958 11.8813 19.7332C11.8813 19.7334 11.8812 19.7336 11.8812 19.7338L11.3188 22.55L11.3183 22.5528ZM11.2102 9.77408C10.431 10.7479 9.4147 11.25 8.40122 11.25C7.38773 11.25 6.3714 10.7479 5.59219 9.77408C4.80951 8.79587 4.35047 7.43985 4.35047 6C4.35047 4.56015 4.80951 3.20413 5.59219 2.22592C6.3714 1.25207 7.38773 0.75 8.40122 0.75C9.4147 0.75 10.431 1.25207 11.2102 2.22592C11.9929 3.20413 12.452 4.56015 12.452 6C12.452 7.43985 11.9929 8.79587 11.2102 9.77408ZM21.4823 11.5188C21.4825 11.5185 21.4828 11.5183 21.483 11.518C21.6501 11.3109 21.8274 11.25 21.961 11.25C22.0945 11.25 22.2704 11.3108 22.4354 11.517L22.974 12.1902C22.9742 12.1904 22.9744 12.1906 22.9746 12.1909C23.3426 12.6545 23.3405 13.4518 22.9755 13.908L22.4584 14.5542L20.756 12.4266L21.4823 11.5188ZM16.1755 22.4067C16.1065 22.4928 16.0337 22.5356 15.9791 22.5528L16.1755 22.4067Z" fill="white" stroke="#858995" stroke-width="1.5"/>
</svg>
