<svg width="33" height="34" viewBox="0 0 33 34" fill="none" xmlns="http://www.w3.org/2000/svg">
<path fill-rule="evenodd" clip-rule="evenodd" d="M27.4286 0.140625C25.1582 0.140625 23.2383 1.70318 22.6835 3.80101L22.0727 3.51721C21.9638 3.46655 21.845 3.4403 21.7249 3.4403C21.6047 3.4403 21.486 3.46655 21.3771 3.51721L11.2748 8.21016L1.17249 3.51754C1.04679 3.45916 0.908402 3.43339 0.770111 3.44261C0.631821 3.45183 0.498082 3.49575 0.381242 3.5703C0.264402 3.64485 0.168227 3.74763 0.101595 3.86916C0.0349636 3.99069 2.32757e-05 4.12705 2.22504e-08 4.26565V27.4605C-3.65023e-05 27.6178 0.0448946 27.7718 0.129497 27.9044C0.2141 28.037 0.334849 28.1427 0.47751 28.2089L10.9273 33.0629C11.0362 33.1136 11.155 33.1399 11.2751 33.1399C11.3953 33.1399 11.514 33.1136 11.6229 33.0629L21.7252 28.3703L31.8275 33.0629C32.3743 33.3167 33 32.9177 33 32.3152V9.12031C33 8.96301 32.9551 8.80899 32.8705 8.67638C32.7859 8.54377 32.6652 8.43812 32.5225 8.37187L31.4566 7.8762L31.7902 7.30794C31.8661 7.17033 31.9265 7.02381 31.9783 6.87399C32.2168 6.29142 32.3397 5.66801 32.34 5.03851C32.34 2.34669 30.1283 0.140625 27.4286 0.140625ZM27.4286 2.43513C28.8823 2.43513 30.0383 3.58882 30.0383 5.03851C30.0383 6.48788 28.8823 7.64058 27.4286 7.64058C25.975 7.64058 24.819 6.48788 24.819 5.03851C24.819 3.58882 25.975 2.43513 27.4286 2.43513ZM22.0938 5.34641L22.5482 5.55794C22.6365 6.38263 22.9348 7.17091 23.4145 7.84749L26.8293 13.7512C27.3078 14.3763 27.6259 14.2575 28.0236 13.7182L30.6164 9.30511L31.35 9.64633V31.0222L22.2163 26.7794L22.1417 13.6862C22.2763 13.7153 22.4106 13.7433 22.5456 13.7753L22.8492 12.4913C22.6116 12.4351 22.3731 12.3831 22.1338 12.3352L22.0938 5.34641ZM21.1045 5.46323L21.1424 12.1741C20.8016 12.1275 20.4588 12.0966 20.1152 12.0814L20.0663 13.4001C20.4254 13.4133 20.7874 13.4522 21.1504 13.505L21.2263 26.7823L11.7632 31.179L11.6414 9.85951L21.1045 5.46323ZM1.65 5.5586L10.6508 9.73972L10.7732 31.1724L1.65 26.9338V5.5586ZM18.6592 12.1715C18.2048 12.253 17.7398 12.3986 17.3069 12.6503C16.7889 12.9502 16.363 13.3862 16.0753 13.9109L17.231 14.5485C17.4031 14.235 17.6569 13.974 17.9655 13.7931L17.9675 13.7918L17.9695 13.7905C18.2358 13.6354 18.5529 13.5311 18.8925 13.4704L18.6592 12.1715ZM24.159 12.8417L23.7851 14.107C24.6111 14.3512 25.4291 14.6317 26.2426 14.9353L26.7043 13.6984C25.8687 13.3869 25.0213 13.0965 24.159 12.8417ZM15.5783 15.3484L15.5684 15.4006L15.5674 15.4052C15.4028 16.3394 15.4202 17.2588 15.4572 18.1327L16.7759 18.0766C16.7399 17.2288 16.7323 16.4084 16.8673 15.6385L16.8752 15.5973L15.5783 15.3484ZM16.8544 19.3778L15.5377 19.4669C15.5971 20.3476 15.6605 21.2109 15.6582 22.0574L16.9782 22.0607C16.9808 21.1466 16.9138 20.2529 16.8544 19.3778ZM15.5925 23.3015C15.5562 23.616 15.5021 23.9219 15.4229 24.2156L15.4222 24.2172L15.4216 24.2199C15.3061 24.6604 15.1117 25.0683 14.8404 25.3878L15.8459 26.2425C16.271 25.7425 16.5406 25.1541 16.6973 24.5588L16.698 24.5568C16.797 24.1885 16.8614 23.8176 16.9036 23.4513L15.5925 23.3015ZM4.44906 24.5878L3.85638 25.7673C4.67478 26.1788 5.52123 26.519 6.37362 26.8134L6.80427 25.5656C5.99412 25.2861 5.20311 24.9667 4.44906 24.5878ZM8.02494 25.9451L7.67382 27.2176C8.547 27.4589 9.4446 27.6506 10.362 27.7539L10.5092 26.4421C9.67725 26.3487 8.84763 26.1725 8.02494 25.9451ZM14.0115 26.0382C13.3541 26.3748 12.5605 26.4992 11.7444 26.5091L11.7609 27.8291C12.6961 27.8179 13.696 27.6826 14.6127 27.213L14.0115 26.0382Z" fill="black"/>
</svg>
