<svg width="33" height="33" viewBox="0 0 33 33" fill="none" xmlns="http://www.w3.org/2000/svg">
<path fill-rule="evenodd" clip-rule="evenodd" d="M16.4694 3.53683C15.484 3.51904 14.5048 3.69573 13.5878 4.05679C12.6708 4.41784 11.834 4.95618 11.1253 5.641C10.4166 6.32581 9.84988 7.14365 9.45762 8.04772C9.06536 8.95179 8.85524 9.92433 8.83929 10.9097V21.2147C8.83929 21.8399 8.59095 22.4394 8.1489 22.8814C7.70684 23.3235 7.1073 23.5718 6.48214 23.5718H3.53571C2.59798 23.5718 1.69866 23.1993 1.03559 22.5362C0.372512 21.8732 0 20.9739 0 20.0362L0 15.3221C0 14.3844 0.372512 13.4851 1.03559 12.8221C1.69866 12.159 2.59798 11.7865 3.53571 11.7865H5.30357V10.8673C5.32508 9.41861 5.63176 7.98837 6.2061 6.65825C6.78045 5.32812 7.6112 4.12416 8.65092 3.11513C9.69064 2.10609 10.919 1.31175 12.2657 0.777465C13.6125 0.243181 15.0513 -0.0205777 16.5 0.00125233C17.9487 -0.0205777 19.3875 0.243181 20.7343 0.777465C22.0811 1.31175 23.3094 2.10609 24.3491 3.11513C25.3888 4.12416 26.2196 5.32812 26.7939 6.65825C27.3682 7.98837 27.6749 9.41861 27.6964 10.8673V11.7865H29.4643C30.402 11.7865 31.3013 12.159 31.9644 12.8221C32.6275 13.4851 33 14.3844 33 15.3221V20.0362C33 20.9739 32.6275 21.8732 31.9644 22.5362C31.3013 23.1993 30.402 23.5718 29.4643 23.5718H27.6964V24.7503C27.6967 26.3431 27.1105 27.8803 26.0497 29.0684C24.9889 30.2566 23.5277 31.0126 21.945 31.1921C21.6376 31.7409 21.1894 32.1977 20.6467 32.5155C20.1039 32.8333 19.4861 33.0005 18.8571 33H15.3214C14.3837 33 13.4844 32.6275 12.8213 31.9645C12.1582 31.3014 11.7857 30.4021 11.7857 29.4644C11.7857 28.5267 12.1582 27.6274 12.8213 26.9644C13.4844 26.3013 14.3837 25.9288 15.3214 25.9288H18.8571C20.1347 25.9288 21.2544 26.6053 21.8743 27.6212C22.524 27.4719 23.1038 27.1067 23.5191 26.5852C23.9344 26.0638 24.1606 25.4169 24.1607 24.7503V10.9073C24.1445 9.9169 23.9322 8.9395 23.536 8.03162C23.1398 7.12375 22.5675 6.30341 21.8523 5.61804C21.1371 4.93266 20.2931 4.39585 19.3692 4.03862C18.4452 3.6814 17.4596 3.51085 16.4694 3.53683Z" fill="black"/>
</svg>
