<svg width="10" height="10" viewBox="0 0 10 10" fill="none" xmlns="http://www.w3.org/2000/svg">
<path d="M5 10C2.23529 10 0 7.76471 0 5C0 2.23529 2.23529 0 5 0C7.76471 0 10 2.23529 10 5C10 7.76471 7.76471 10 5 10ZM5 0.588235C2.55882 0.588235 0.588235 2.55882 0.588235 5C0.588235 7.44118 2.55882 9.41177 5 9.41177C7.44118 9.41177 9.41177 7.44118 9.41177 5C9.41177 2.55882 7.44118 0.588235 5 0.588235Z" fill="#0071EB"/>
<path d="M2.35352 4.70605H7.64763V5.29429H2.35352V4.70605Z" fill="#0071EB"/>
<path d="M4.70508 2.35254H5.29331V7.64666H4.70508V2.35254Z" fill="#0071EB"/>
</svg>
