<svg width="54" height="33" viewBox="0 0 54 33" fill="none" xmlns="http://www.w3.org/2000/svg">
<path d="M39.8542 16.0498L39.3007 17.3241C39.2142 17.5316 39.0683 17.7088 38.8813 17.8335C38.6944 17.9582 38.4747 18.0247 38.25 18.0247C38.0253 18.0247 37.8056 17.9582 37.6187 17.8335C37.4317 17.7088 37.2858 17.5316 37.1993 17.3241L36.6458 16.0498C35.6726 13.7956 33.8904 11.9883 31.6508 10.9844L29.943 10.2212C29.7358 10.1258 29.5603 9.973 29.4373 9.78087C29.3142 9.58874 29.2489 9.36534 29.2489 9.13716C29.2489 8.90897 29.3142 8.68557 29.4373 8.49344C29.5603 8.30131 29.7358 8.14851 29.943 8.05315L31.5562 7.33498C33.8522 6.30248 35.6649 4.42826 36.621 2.09841L37.1902 0.722855C37.2739 0.509777 37.4197 0.326844 37.6087 0.197905C37.7977 0.068965 38.0212 0 38.25 0C38.4788 0 38.7023 0.068965 38.8913 0.197905C39.0803 0.326844 39.2261 0.509777 39.3098 0.722855L39.879 2.09616C40.8341 4.42645 42.646 6.30147 44.9415 7.33498L46.557 8.0554C46.7636 8.15103 46.9384 8.30381 47.061 8.4957C47.1836 8.68758 47.2487 8.91055 47.2487 9.13828C47.2487 9.36601 47.1836 9.58898 47.061 9.78087C46.9384 9.97275 46.7636 10.1255 46.557 10.2212L44.847 10.9821C42.6078 11.987 40.8264 13.7952 39.8542 16.0498ZM6.363 20.2643L15.9097 29.8166L12.7283 33L0 20.2643L12.7283 7.52859L15.9075 10.712L6.363 20.2643ZM41.2718 33L54 20.2643L47.6325 13.8976L44.451 17.0809L47.6348 20.2643L38.0903 29.8166L41.2718 33Z" fill="black"/>
</svg>
