<svg width="16" height="17" viewBox="0 0 16 17" fill="none" xmlns="http://www.w3.org/2000/svg">
<g id="solar:lock-outline">
<path id="Vector" fill-rule="evenodd" clip-rule="evenodd" d="M3.50065 6.70167V5.83301C3.50065 4.63953 3.97476 3.49494 4.81867 2.65103C5.66258 1.80711 6.80718 1.33301 8.00065 1.33301C9.19413 1.33301 10.3387 1.80711 11.1826 2.65103C12.0265 3.49494 12.5007 4.63953 12.5007 5.83301V6.70167C12.652 6.71234 12.794 6.72567 12.9287 6.74434C13.5287 6.82434 14.034 6.99767 14.4353 7.39834C14.8367 7.79967 15.0087 8.30501 15.09 8.90501C15.1673 9.48301 15.1673 10.2183 15.1673 11.1297V11.203C15.1673 12.1143 15.1673 12.8497 15.09 13.4277C15.0087 14.0277 14.8367 14.533 14.4353 14.9343C14.034 15.3357 13.5287 15.5077 12.9287 15.589C12.3507 15.6663 11.6153 15.6663 10.704 15.6663H5.29732C4.38598 15.6663 3.65065 15.6663 3.07265 15.589C2.47265 15.5077 1.96732 15.3357 1.56598 14.9343C1.16465 14.533 0.992651 14.0277 0.911984 13.4277C0.833984 12.8497 0.833984 12.1143 0.833984 11.203V11.1297C0.833984 10.2183 0.833984 9.48301 0.911984 8.90501C0.991984 8.30501 1.16532 7.79967 1.56598 7.39834C1.96732 6.99701 2.47265 6.82501 3.07265 6.74434C3.2148 6.7253 3.35754 6.71107 3.50065 6.70167ZM4.50065 5.83301C4.50065 4.90475 4.8694 4.01451 5.52578 3.35813C6.18215 2.70176 7.07239 2.33301 8.00065 2.33301C8.92891 2.33301 9.81915 2.70176 10.4755 3.35813C11.1319 4.01451 11.5007 4.90475 11.5007 5.83301V6.66834C11.252 6.66634 10.986 6.66634 10.704 6.66634H5.29732C5.01532 6.66634 4.74998 6.66634 4.50065 6.66834V5.83301ZM2.27332 8.10567C2.45798 7.92101 2.71665 7.80101 3.20665 7.73501C3.70932 7.66767 4.37732 7.66634 5.33398 7.66634H10.6673C11.624 7.66634 12.2913 7.66767 12.7953 7.73501C13.2846 7.80101 13.5433 7.92167 13.728 8.10567C13.9127 8.29034 14.0326 8.54901 14.0986 9.03901C14.166 9.54234 14.1673 10.2097 14.1673 11.1663C14.1673 12.123 14.166 12.7903 14.0986 13.2943C14.0326 13.7837 13.912 14.0423 13.728 14.227C13.5433 14.4117 13.2846 14.5317 12.7947 14.5977C12.2913 14.665 11.624 14.6663 10.6673 14.6663H5.33398C4.37732 14.6663 3.70932 14.665 3.20598 14.5977C2.71665 14.5317 2.45798 14.411 2.27332 14.227C2.08865 14.0423 1.96865 13.7837 1.90265 13.2937C1.83532 12.7903 1.83398 12.123 1.83398 11.1663C1.83398 10.2097 1.83532 9.54167 1.90265 9.03834C1.96865 8.54901 2.08932 8.29034 2.27332 8.10567Z" fill="#F8F8F8"/>
</g>
</svg>
