<svg width="26" height="28" viewBox="0 0 26 28" fill="none" xmlns="http://www.w3.org/2000/svg">
<path d="M14.251 1.5H14.5919C18.6684 1.5 20.7066 1.5 22.1221 2.49729C22.5277 2.78304 22.8878 3.12191 23.1914 3.50361C24.251 4.83584 24.251 6.7542 24.251 10.5909V13.7727C24.251 17.4767 24.251 19.3287 23.6648 20.8078C22.7225 23.1857 20.7296 25.0614 18.203 25.9483C16.6314 26.5 14.6637 26.5 10.7282 26.5C8.47941 26.5 7.355 26.5 6.45695 26.1848C5.01322 25.6779 3.87442 24.6061 3.33593 23.2473C3.00098 22.4021 3.00098 21.3438 3.00098 19.2273V14" stroke="#3276E8" stroke-width="2" stroke-linecap="round" stroke-linejoin="round"/>
<path d="M24.251 14C24.251 16.3012 22.3855 18.1667 20.0843 18.1667C19.2521 18.1667 18.2709 18.0208 17.4618 18.2377C16.7428 18.4303 16.1813 18.9919 15.9886 19.7108C15.7718 20.52 15.9176 21.5011 15.9176 22.3333C15.9176 24.6345 14.0522 26.5 11.751 26.5" stroke="#3276E8" stroke-width="2" stroke-linecap="round" stroke-linejoin="round"/>
<path d="M11.75 6.5L1.75 6.5M6.75 1.5V11.5" stroke="#3276E8" stroke-width="2" stroke-linecap="round"/>
</svg>
